<?xml version="1.0" standalone="no"?>
<!DOCTYPE svg PUBLIC "-//W3C//DTD SVG 20010904//EN"
 "http://www.w3.org/TR/2001/REC-SVG-20010904/DTD/svg10.dtd">
<svg version="1.0" xmlns="http://www.w3.org/2000/svg"
 width="225.000000pt" height="225.000000pt" viewBox="0 0 225.000000 225.000000"
 preserveAspectRatio="xMidYMid meet">

<g transform="translate(0.000000,225.000000) scale(0.100000,-0.100000)"
fill="#000000" stroke="none">
<path d="M908 2220 c-114 -26 -172 -46 -274 -95 -264 -128 -480 -376 -568
-653 -126 -400 -32 -816 252 -1114 76 -79 171 -158 192 -158 5 0 10 -4 10 -9
0 -13 212 -115 280 -134 116 -34 258 -50 379 -44 181 9 392 72 513 153 28 19
52 34 55 34 10 0 136 105 176 146 59 60 141 172 182 246 45 84 69 146 103 268
23 85 26 113 26 265 0 152 -3 181 -26 273 -99 383 -403 697 -773 799 -172 47
-381 56 -527 23z m403 -35 c341 -59 631 -277 783 -589 85 -173 125 -389 106
-572 -13 -127 -18 -146 -39 -140 -9 2 -76 17 -149 32 -125 26 -133 29 -128 48
16 57 18 214 3 292 -59 310 -274 538 -577 615 -118 30 -310 23 -417 -14 -278
-98 -464 -311 -519 -595 -16 -86 -18 -173 -4 -256 5 -33 8 -62 5 -64 -4 -5
-271 -61 -291 -62 -33 -1 -45 297 -19 438 63 331 265 605 560 759 119 62 246
103 360 116 78 10 251 6 326 -8z m-58 -339 c306 -59 531 -283 593 -590 54
-262 -64 -558 -286 -720 -165 -121 -378 -170 -570 -132 -242 48 -445 215 -540
442 -57 137 -71 262 -46 405 71 398 458 669 849 595z m-905 -1008 c7 -7 12
-22 12 -35 0 -27 -30 -32 -50 -8 -9 10 -9 15 -1 15 6 0 11 9 11 20 0 23 10 26
28 8z m1552 -48 l5 -44 18 27 c25 39 47 35 47 -7 0 -40 12 -52 30 -31 19 23
30 18 30 -14 0 -18 8 -34 23 -44 21 -14 21 -17 7 -44 -9 -16 -26 -29 -40 -31
-14 -2 -30 -8 -35 -12 -6 -5 -16 -6 -22 -2 -9 6 -9 20 2 57 9 29 12 52 6 58
-6 6 -9 2 -8 -9 2 -25 -27 -25 -31 -1 -2 10 5 28 15 39 18 20 17 20 -2 17 -29
-6 -43 -63 -21 -88 18 -20 12 -51 -9 -51 -26 0 -45 12 -45 29 0 12 -9 16 -32
16 -22 0 -34 5 -36 16 -4 20 44 35 63 19 9 -8 14 -6 19 6 11 27 7 33 -26 36
-32 3 -53 28 -24 28 9 0 16 5 16 11 0 6 7 9 15 5 20 -7 19 11 -2 22 -21 12 -9
45 14 40 13 -2 19 -16 23 -48z m-1624 -18 c-12 -13 -18 -13 -31 -2 -14 11 -13
14 2 25 26 19 51 -2 29 -23z m-53 -9 c24 -7 21 -19 -5 -27 -40 -10 -48 -7 -48
20 0 21 3 25 18 19 9 -4 25 -10 35 -12z m114 -24 c4 -15 11 -19 24 -15 11 3
28 9 39 12 27 9 39 -22 15 -40 -13 -9 -15 -15 -7 -20 7 -4 12 -14 12 -22 0
-11 -15 -14 -75 -12 -57 1 -80 -2 -91 -14 -14 -14 -13 -17 11 -36 21 -16 32
-19 45 -12 30 16 33 12 10 -20 l-22 -31 -39 40 c-47 46 -49 64 -9 81 39 16 29
30 -21 30 -28 0 -39 4 -37 12 3 8 19 12 41 10 29 -3 39 1 44 15 7 19 32 42 46
43 5 0 11 -9 14 -21z m259 -249 c21 0 17 -28 -5 -35 -11 -3 -21 -19 -25 -36
-5 -26 -10 -30 -27 -26 -16 4 -25 -2 -37 -24 -20 -34 -28 -36 -43 -8 -9 18 -7
25 15 48 14 15 26 32 26 39 0 17 17 15 24 -3 3 -8 9 -15 15 -15 12 0 21 39 10
46 -14 9 1 26 18 20 8 -3 21 -6 29 -6z m1088 -35 c4 -12 10 -13 31 -3 34 15
43 3 17 -25 -19 -20 -20 -27 -10 -59 6 -20 8 -43 5 -52 -7 -17 -57 -22 -57 -6
0 6 7 10 15 10 10 0 15 10 15 27 0 21 -3 24 -12 15 -7 -7 -21 -12 -32 -12 -18
0 -18 2 5 26 l24 26 -28 20 c-15 11 -27 26 -27 34 0 19 46 18 54 -1z m-1034
-40 c36 -19 37 -28 8 -65 -13 -16 -31 -40 -41 -54 -23 -33 -37 -33 -37 -2 0
18 -6 26 -22 28 -35 5 -31 23 14 67 24 22 44 41 46 41 2 0 16 -7 32 -15z
m1148 -37 c-4 -27 -18 -31 -42 -13 -23 17 -13 35 20 35 20 0 25 -4 22 -22z
m-856 -93 c14 -30 -3 -55 -38 -55 -24 0 -34 -25 -13 -32 13 -4 0 -38 -15 -38
-11 0 -52 78 -45 84 2 2 19 11 37 20 18 9 36 24 39 32 8 21 22 17 35 -11z
m463 5 c3 -6 -1 -13 -9 -16 -9 -3 -16 -17 -16 -29 0 -21 4 -23 33 -19 40 6 70
-11 47 -26 -8 -5 -28 -10 -45 -10 -16 0 -45 -9 -62 -20 -25 -15 -39 -17 -58
-10 -34 13 -32 30 5 30 19 0 33 7 40 20 9 17 7 22 -15 30 -33 13 -31 22 8 41
38 20 64 23 72 9z m-395 -19 c0 -11 5 -23 10 -26 17 -10 11 -35 -8 -35 -21 0
-42 -18 -42 -37 0 -16 46 -17 56 -2 5 8 10 6 16 -6 15 -25 -2 -35 -48 -28 -59
8 -73 39 -42 96 32 59 58 75 58 38z"/>
<path d="M1074 2076 c-10 -43 3 -78 29 -74 19 3 22 9 22 48 0 39 -3 45 -22 48
-17 3 -24 -3 -29 -22z m44 -23 c-3 -38 -24 -56 -34 -29 -9 24 4 66 22 66 11 0
14 -9 12 -37z"/>
<path d="M1157 2093 c-4 -3 -6 -27 -6 -52 1 -25 4 -36 6 -24 2 13 13 24 26 26
l22 4 -22 2 c-35 2 -31 39 5 44 l27 4 -26 2 c-14 0 -29 -2 -32 -6z"/>
<path d="M966 2068 c-6 -21 -7 -22 -20 -5 -7 9 -16 17 -20 17 -4 0 2 -12 13
-26 12 -15 22 -36 22 -48 1 -11 5 1 10 29 8 52 6 71 -5 33z"/>
<path d="M870 2069 c-20 -8 -22 -12 -10 -19 8 -5 20 -24 27 -42 6 -19 12 -25
12 -15 1 10 -4 27 -10 38 -7 15 -7 24 2 35 13 16 13 16 -21 3z"/>
<path d="M1302 2055 c-16 -34 -15 -50 3 -65 12 -10 18 -10 30 0 8 7 15 17 15
23 0 6 -6 2 -14 -9 -21 -28 -42 -6 -29 33 11 33 39 42 47 16 4 -15 5 -15 3 2
-3 31 -41 31 -55 0z"/>
<path d="M1377 2018 c-9 -23 -14 -44 -11 -47 2 -3 7 5 11 17 3 12 8 22 12 22
3 0 7 11 7 25 1 14 1 25 -1 25 -1 0 -9 -19 -18 -42z"/>
<path d="M816 2031 c10 -38 33 -88 33 -71 0 8 -8 33 -19 55 -11 22 -17 29 -14
16z"/>
<path d="M1433 2030 c-3 -11 -8 -20 -12 -20 -4 0 -8 -14 -9 -32 -2 -18 -1 -30
1 -27 8 9 36 99 30 99 -2 0 -7 -9 -10 -20z"/>
<path d="M740 2015 c-16 -19 -5 -32 30 -37 34 -4 34 -34 0 -30 -18 2 -22 0
-13 -9 16 -16 53 -1 53 22 0 14 -9 21 -30 26 -17 3 -30 12 -30 20 0 10 6 13
16 9 8 -3 12 -2 9 4 -9 14 -21 12 -35 -5z"/>
<path d="M1455 1994 c-17 -37 -15 -64 7 -64 11 0 11 2 0 8 -21 14 -3 44 22 36
20 -6 20 -6 2 8 -24 19 -12 41 17 33 17 -5 19 -4 7 4 -25 18 -37 12 -55 -25z"/>
<path d="M1530 1960 c-24 -47 -26 -61 -4 -34 14 18 15 18 8 -6 -6 -23 -6 -24
11 -10 17 14 18 13 12 -2 -12 -33 9 -18 26 17 22 47 22 62 -1 42 -26 -24 -33
-21 -22 8 15 41 -7 30 -30 -15z"/>
<path d="M662 1981 c-12 -7 -11 -13 2 -37 28 -53 37 -62 30 -29 l-7 29 27 -18
c15 -9 30 -15 33 -13 2 3 -5 10 -16 17 -13 6 -21 21 -21 35 0 26 -22 33 -48
16z m38 -15 c0 -21 -21 -31 -30 -15 -5 7 -6 17 -4 21 9 14 34 9 34 -6z"/>
<path d="M1619 1938 c-7 -12 -19 -34 -28 -48 -15 -24 -15 -24 2 -11 21 17 51
70 44 78 -3 2 -11 -6 -18 -19z"/>
<path d="M589 1938 c-15 -11 -15 -15 8 -50 28 -42 44 -47 64 -20 11 14 11 15
-1 5 -8 -7 -20 -13 -27 -13 -17 0 -17 36 0 44 6 3 2 3 -10 1 -29 -8 -41 14
-18 32 22 16 7 17 -16 1z"/>
<path d="M1636 1898 c-9 -12 -16 -31 -16 -41 0 -22 27 -34 43 -18 9 9 8 11 -4
6 -25 -9 -33 13 -15 40 19 29 43 32 49 8 4 -14 5 -12 6 5 1 30 -42 30 -63 0z"/>
<path d="M550 1901 c0 -5 4 -21 10 -36 11 -28 3 -27 -33 3 -9 8 -20 13 -23 10
-2 -3 14 -20 37 -37 24 -17 44 -29 46 -28 4 4 -28 97 -33 97 -2 0 -4 -4 -4 -9z"/>
<path d="M1710 1839 c-38 -24 -41 -29 -20 -27 21 3 25 -1 23 -19 -2 -13 0 -23
2 -23 7 0 47 92 42 96 -1 2 -23 -10 -47 -27z m25 -9 c-3 -5 -11 -10 -16 -10
-6 0 -7 5 -4 10 3 6 11 10 16 10 6 0 7 -4 4 -10z"/>
<path d="M480 1854 c1 -12 58 -79 64 -73 2 2 -11 22 -30 43 -19 22 -34 35 -34
30z"/>
<path d="M450 1825 c0 -5 7 -17 17 -27 18 -20 4 -25 -27 -8 -33 18 -30 -6 5
-40 36 -35 49 -32 18 3 -17 19 -17 19 7 12 14 -4 31 -10 38 -12 19 -8 14 2
-23 43 -19 21 -35 34 -35 29z"/>
<path d="M1762 1787 l-32 -33 22 -20 c19 -16 20 -16 9 -1 -13 16 -10 22 19 52
19 19 29 35 24 35 -6 0 -25 -15 -42 -33z"/>
<path d="M413 1728 c29 -24 35 -33 26 -44 -9 -11 -17 -9 -45 12 -19 15 -34 22
-33 18 1 -17 57 -54 72 -48 29 11 27 35 -5 65 -18 16 -37 29 -43 29 -5 -1 7
-15 28 -32z"/>
<path d="M1890 1718 c0 -9 -14 -26 -31 -38 -16 -12 -28 -24 -25 -27 2 -3 18 5
34 17 17 12 35 19 41 16 15 -10 13 5 -4 28 -13 17 -15 17 -15 4z"/>
<path d="M1893 1639 c-36 -23 -46 -47 -12 -27 17 10 23 10 26 1 3 -7 9 -13 15
-13 6 0 5 6 -2 15 -19 23 3 44 25 25 13 -11 14 -10 9 4 -8 21 -22 20 -61 -5z"/>
<path d="M281 1606 c-15 -18 -5 -41 25 -55 36 -16 52 -14 59 10 9 29 -25 53
-40 29 -3 -5 3 -10 14 -10 24 0 28 -18 6 -26 -19 -8 -68 23 -62 39 3 7 10 11
16 10 6 -2 11 2 11 7 0 14 -16 12 -29 -4z"/>
<path d="M1922 1574 c-26 -18 -28 -36 -7 -54 11 -9 19 -10 26 -3 8 8 6 11 -6
10 -28 -3 -29 20 -1 38 31 21 65 13 46 -10 -8 -10 -9 -15 -2 -15 16 0 23 16
16 34 -8 20 -43 21 -72 0z"/>
<path d="M263 1528 c36 -13 34 -26 -5 -30 l-33 -3 32 -18 c18 -9 40 -17 50
-17 12 1 8 6 -12 15 -25 11 -27 14 -10 16 11 1 26 2 33 2 6 -1 12 3 12 9 0 10
-62 38 -82 37 -7 0 -1 -5 15 -11z"/>
<path d="M1965 1500 c-28 -13 -32 -18 -14 -14 35 7 49 -23 16 -36 -12 -5 -17
-9 -11 -9 13 -1 84 27 84 33 0 2 -11 1 -25 -2 -30 -5 -35 21 -7 37 30 18 -1
11 -43 -9z"/>
<path d="M210 1425 c20 -24 70 -58 77 -52 2 3 -9 13 -27 22 -20 10 -30 22 -26
31 4 9 -1 14 -16 14 -17 0 -18 -2 -8 -15z"/>
<path d="M1990 1424 l-35 -14 35 6 35 6 -30 -32 c-25 -27 -26 -31 -10 -27 11
3 32 9 48 13 15 3 27 10 27 15 0 5 -12 4 -26 -1 -39 -15 -40 -12 -9 20 32 33
22 37 -35 14z"/>
<path d="M260 1421 c0 -4 11 -6 25 -3 14 2 25 6 25 8 0 2 -11 4 -25 4 -14 0
-25 -4 -25 -9z"/>
<path d="M190 1384 c0 -6 5 -15 12 -22 9 -9 8 -12 -4 -12 -9 0 -19 -3 -21 -7
-3 -5 17 -8 43 -8 26 0 46 3 43 8 -2 4 -9 7 -15 7 -7 0 -22 10 -35 22 -13 12
-23 17 -23 12z"/>
<path d="M2023 1353 c-51 -10 -56 -63 -5 -63 41 0 70 24 56 46 -12 20 -20 23
-51 17z m42 -13 c11 -18 -16 -40 -47 -40 -54 0 -26 40 34 49 4 1 10 -4 13 -9z"/>
<path d="M183 1293 c34 -5 35 -19 2 -27 -39 -10 -30 -23 22 -30 56 -7 68 -1
22 12 l-34 10 33 7 c17 4 32 11 32 15 0 11 -39 20 -75 18 l-30 -1 28 -4z"/>
<path d="M1994 1256 c-3 -8 -4 -23 -1 -33 3 -12 5 -9 6 9 1 24 5 27 44 31 l42
4 -43 1 c-29 1 -44 -3 -48 -12z"/>
<path d="M151 1183 c-1 -33 -1 -33 49 -33 48 0 50 1 49 28 -1 22 -2 23 -6 5
-4 -18 -10 -21 -41 -19 -29 1 -38 7 -43 26 -6 23 -7 22 -8 -7z"/>
<path d="M2012 1188 c-7 -7 -12 -20 -12 -30 0 -14 8 -18 39 -18 46 0 70 22 51
45 -15 18 -61 20 -78 3z m73 -18 c0 -10 -12 -16 -37 -18 -28 -2 -38 1 -38 12
0 18 17 25 50 23 15 -1 25 -8 25 -17z"/>
<path d="M173 1110 c15 -5 39 -5 55 0 22 7 17 8 -28 8 -45 0 -50 -1 -27 -8z"/>
<path d="M2030 1111 c-18 -5 -26 -15 -28 -35 -3 -24 0 -27 19 -24 12 2 24 10
26 18 4 13 3 13 -6 0 -8 -11 -13 -12 -22 -3 -18 18 -1 33 37 33 34 0 49 -22
22 -33 -10 -4 -10 -6 0 -6 22 -2 27 31 7 45 -10 8 -21 14 -24 13 -3 -1 -17 -4
-31 -8z"/>
<path d="M170 1070 c-19 -6 -12 -8 29 -9 30 -1 52 1 50 3 -11 9 -57 13 -79 6z"/>
<path d="M2070 1035 c-14 -8 -36 -15 -50 -16 -20 -1 -18 -3 10 -9 19 -4 44
-10 55 -14 15 -6 14 -4 -3 7 l-24 14 24 16 c29 20 22 21 -12 2z"/>
<path d="M208 1015 c-6 -14 -17 -25 -25 -25 -16 0 -17 12 0 29 10 11 9 13 -3
9 -23 -7 -19 -42 6 -46 14 -2 24 5 32 23 7 14 17 23 22 20 14 -9 12 -32 -2
-38 -8 -3 -6 -6 5 -6 20 -1 23 29 5 47 -18 18 -27 15 -40 -13z"/>
<path d="M818 1658 l-88 -49 0 -92 c0 -104 -9 -91 107 -151 l73 -38 85 47 85
46 0 97 0 97 -88 46 -87 47 -87 -50z"/>
<path d="M1193 1662 l-83 -47 0 -97 0 -96 87 -46 86 -46 86 48 86 49 0 94 0
94 -85 47 c-47 25 -87 47 -90 47 -3 0 -42 -21 -87 -47z"/>
<path d="M1535 1412 c-105 -36 -139 -79 -199 -246 -44 -124 -92 -177 -211
-237 -43 -22 -82 -43 -85 -46 -10 -11 165 6 211 21 110 34 156 77 211 196 81
176 119 230 193 277 24 15 44 31 45 34 0 8 -53 19 -89 19 -14 -1 -49 -8 -76
-18z"/>
<path d="M639 1351 l-84 -48 -3 -87 c-2 -59 1 -93 10 -103 6 -8 47 -33 91 -54
l79 -40 84 47 84 48 0 95 0 96 -88 47 -89 48 -84 -49z"/>
<path d="M1019 1362 c-104 -58 -100 -52 -97 -155 l3 -91 85 -46 85 -47 87 46
88 46 0 97 0 96 -85 46 c-47 25 -88 46 -92 45 -5 0 -38 -17 -74 -37z"/>
<path d="M852 937 c3 -34 15 -81 26 -103 25 -49 91 -110 141 -131 50 -22 205
-28 299 -13 42 7 98 12 125 12 26 0 47 1 47 4 0 13 -31 61 -52 81 -50 47 -93
57 -237 55 -193 -3 -254 18 -313 109 -17 27 -33 49 -36 49 -3 0 -2 -28 0 -63z"/>
<path d="M1205 599 c-4 -6 -5 -12 -2 -15 2 -3 7 2 10 11 7 17 1 20 -8 4z"/>
<path d="M1236 595 c4 -9 -2 -26 -12 -38 l-19 -22 23 19 c23 20 28 41 12 51
-6 3 -7 -1 -4 -10z"/>
<path d="M1092 565 c0 -16 2 -22 5 -12 2 9 2 23 0 30 -3 6 -5 -1 -5 -18z"/>
<path d="M1162 560 c7 -10 14 -18 15 -16 6 6 -9 36 -18 36 -5 0 -4 -9 3 -20z"/>
<path d="M1120 536 c0 -2 8 -10 18 -17 15 -13 16 -12 3 4 -13 16 -21 21 -21
13z"/>
<path d="M2017 664 c-10 -10 -9 -44 2 -44 13 0 23 32 13 42 -5 5 -11 5 -15 2z"/>
<path d="M340 670 c0 -5 12 -10 26 -10 14 0 23 4 19 10 -3 6 -15 10 -26 10
-10 0 -19 -4 -19 -10z"/>
<path d="M620 380 c0 -5 4 -10 9 -10 6 0 13 5 16 10 3 6 -1 10 -9 10 -9 0 -16
-4 -16 -10z"/>
<path d="M595 340 c-3 -5 -1 -10 4 -10 6 0 11 5 11 10 0 6 -2 10 -4 10 -3 0
-8 -4 -11 -10z"/>
</g>
</svg>
