<?xml version="1.0" standalone="no"?>
<!DOCTYPE svg PUBLIC "-//W3C//DTD SVG 20010904//EN"
 "http://www.w3.org/TR/2001/REC-SVG-20010904/DTD/svg10.dtd">
<svg version="1.0" xmlns="http://www.w3.org/2000/svg"
 width="309.000000pt" height="163.000000pt" viewBox="0 0 309.000000 163.000000"
 preserveAspectRatio="xMidYMid meet">

<g transform="translate(0.000000,163.000000) scale(0.100000,-0.100000)"
fill="#000000" stroke="none">
<path d="M1466 1549 c-123 -28 -179 -144 -125 -256 26 -53 63 -79 181 -129
119 -50 148 -79 148 -147 0 -58 -23 -106 -64 -132 -32 -21 -134 -22 -174 -1
-44 23 -90 81 -98 123 -14 81 -23 66 -24 -39 0 -98 7 -127 25 -98 9 14 63 12
110 -5 82 -29 156 -13 223 48 98 90 107 197 25 288 -43 48 -63 59 -165 92
-132 43 -173 89 -149 168 17 55 50 74 132 74 53 0 74 -5 95 -21 43 -31 65 -67
79 -126 l13 -53 1 109 c1 108 1 109 -19 91 -18 -17 -23 -17 -72 -2 -79 23 -99
25 -142 16z"/>
<path d="M90 1530 c0 -5 20 -10 45 -10 52 0 89 -16 125 -54 34 -37 36 -111 11
-326 -44 -374 -40 -498 25 -718 54 -184 43 -266 -39 -305 -43 -21 -62 -21
-118 -2 l-44 15 25 -20 c14 -10 49 -24 78 -30 97 -21 180 19 228 110 18 33 19
73 22 683 l3 647 69 0 c40 0 70 4 70 10 0 6 -90 10 -250 10 -160 0 -250 -4
-250 -10z"/>
<path d="M630 1209 c-69 -181 -126 -334 -128 -339 -2 -6 28 -10 75 -9 65 1 71
3 39 9 -67 13 -80 51 -47 145 l18 50 105 3 106 3 31 -93 c17 -51 31 -96 31
-100 0 -4 -26 -9 -57 -11 -32 -2 66 -3 217 -3 151 -1 250 2 220 5 l-55 6 0
325 0 325 55 6 c30 3 -24 6 -120 6 -96 -1 -151 -2 -122 -4 l52 -4 0 -330 0
-329 -26 0 c-31 0 -22 -19 -154 360 -57 162 -106 298 -109 302 -3 3 -62 -142
-131 -323z m119 -2 c22 -65 41 -120 41 -123 0 -2 -43 -4 -95 -4 -52 0 -95 3
-95 7 0 21 95 252 101 246 4 -5 25 -61 48 -126z"/>
<path d="M1751 1443 c1 -74 3 -88 8 -55 13 74 73 134 138 136 l38 1 3 -322 2
-323 -50 0 c-27 0 -50 -4 -50 -10 0 -6 62 -10 165 -10 103 0 165 4 165 10 0 6
-22 10 -50 10 l-50 0 0 326 0 327 42 -6 c48 -6 84 -30 116 -77 l22 -33 0 62 0
61 -250 0 -250 0 1 -97z"/>
<path d="M530 710 c0 -51 -2 -59 -17 -53 -11 4 -14 3 -9 -5 4 -7 14 -12 22
-12 10 0 14 13 14 49 0 27 3 56 6 65 3 9 1 16 -5 16 -7 0 -11 -23 -11 -60z"/>
<path d="M610 762 c0 -20 32 -92 41 -92 4 0 -1 21 -12 47 -22 52 -29 62 -29
45z"/>
<path d="M700 720 c0 -27 3 -50 8 -50 4 0 7 22 7 50 0 27 -3 50 -7 50 -5 0 -8
-22 -8 -50z"/>
<path d="M745 744 c0 -27 10 -32 18 -10 3 8 0 19 -6 24 -9 8 -12 4 -12 -14z"/>
<path d="M803 758 c2 -7 10 -30 18 -50 7 -21 17 -38 21 -38 4 0 8 2 8 4 0 12
-40 96 -46 96 -3 0 -4 -6 -1 -12z"/>
<path d="M909 732 c33 -43 61 -68 61 -57 0 12 -72 95 -82 95 -5 0 4 -17 21
-38z"/>
<path d="M547 575 c-4 -8 -2 -15 3 -15 6 0 10 -6 10 -13 0 -18 23 -67 32 -67
6 0 -27 99 -37 108 -1 2 -5 -4 -8 -13z"/>
<path d="M635 535 c0 -51 2 -55 23 -55 42 0 62 18 62 55 0 24 -6 38 -19 45
-30 15 -38 12 -13 -6 37 -26 24 -84 -20 -84 -15 0 -18 9 -18 50 0 28 -3 50 -7
50 -5 0 -8 -25 -8 -55z"/>
<path d="M757 578 c6 -7 16 -30 22 -50 7 -21 17 -38 22 -38 12 0 12 3 -6 36
-8 16 -15 37 -15 47 0 9 -7 17 -16 17 -12 0 -14 -4 -7 -12z"/>
<path d="M890 584 c0 -5 5 -27 12 -49 6 -22 11 -43 10 -47 -1 -5 5 -8 13 -8
12 0 11 9 -6 53 -21 53 -29 67 -29 51z"/>
<path d="M989 558 c16 -18 38 -44 50 -58 17 -20 20 -22 21 -7 0 9 -3 17 -7 17
-5 0 -21 18 -37 40 -17 22 -36 40 -43 40 -8 0 -1 -13 16 -32z"/>
<path d="M1050 579 c0 -5 5 -7 10 -4 6 3 10 8 10 11 0 2 -4 4 -10 4 -5 0 -10
-5 -10 -11z"/>
<path d="M1106 574 c-20 -20 -20 -58 0 -78 16 -17 69 -22 78 -7 3 4 -11 8 -32
7 -35 -1 -37 1 -40 32 -2 18 2 40 9 48 16 19 4 18 -15 -2z"/>
<path d="M1165 580 c3 -5 8 -10 11 -10 2 0 4 5 4 10 0 6 -5 10 -11 10 -5 0 -7
-4 -4 -10z"/>
<path d="M1225 535 l0 -55 32 0 c17 0 34 4 37 8 3 5 -8 6 -25 4 -29 -4 -29 -4
-29 47 0 28 -3 51 -7 51 -5 0 -8 -25 -8 -55z"/>
<path d="M1335 535 c0 -52 1 -55 26 -55 60 0 87 75 37 101 -22 12 -22 11 -5
-8 30 -35 16 -83 -25 -83 -15 0 -18 9 -18 50 0 28 -3 50 -7 50 -5 0 -8 -25 -8
-55z"/>
<path d="M1658 535 c-2 -44 0 -55 12 -55 12 0 14 11 12 55 -2 30 -8 55 -12 55
-4 0 -10 -25 -12 -55z"/>
<path d="M1762 540 c23 -27 44 -47 47 -45 7 8 -63 94 -77 95 -7 0 6 -22 30
-50z"/>
<path d="M1805 580 c3 -5 8 -10 11 -10 2 0 4 5 4 10 0 6 -5 10 -11 10 -5 0 -7
-4 -4 -10z"/>
<path d="M1863 574 c-4 -11 3 -23 20 -36 15 -11 27 -27 27 -36 0 -13 2 -14 13
-3 10 10 5 18 -22 41 -18 16 -30 33 -27 39 4 6 5 11 1 11 -3 0 -8 -7 -12 -16z"/>
<path d="M1905 580 c3 -5 8 -10 11 -10 2 0 4 5 4 10 0 6 -5 10 -11 10 -5 0 -7
-4 -4 -10z"/>
<path d="M1995 540 c0 -65 12 -65 17 0 2 29 -1 50 -7 50 -5 0 -10 -22 -10 -50z"/>
<path d="M2045 580 c3 -5 8 -10 11 -10 2 0 4 5 4 10 0 6 -5 10 -11 10 -5 0 -7
-4 -4 -10z"/>
<path d="M2095 540 c0 -65 12 -65 17 0 2 29 -1 50 -7 50 -5 0 -10 -22 -10 -50z"/>
<path d="M2190 540 c0 -27 5 -50 10 -50 6 0 10 23 10 50 0 28 -4 50 -10 50 -5
0 -10 -22 -10 -50z"/>
<path d="M2288 548 c5 -49 17 -69 41 -67 13 1 13 2 -1 6 -21 5 -32 42 -26 78
3 15 1 25 -6 25 -7 0 -10 -15 -8 -42z"/>
<path d="M2440 540 c0 -27 5 -50 10 -50 6 0 10 23 10 50 0 28 -4 50 -10 50 -5
0 -10 -22 -10 -50z"/>
<path d="M2540 540 c0 -27 5 -50 10 -50 6 0 10 23 10 50 0 28 -4 50 -10 50 -5
0 -10 -22 -10 -50z"/>
<path d="M2595 580 c3 -5 8 -10 11 -10 2 0 4 5 4 10 0 6 -5 10 -11 10 -5 0 -7
-4 -4 -10z"/>
<path d="M2805 566 c-12 -18 -13 -30 -6 -50 6 -14 16 -26 23 -26 9 0 9 3 0 12
-7 7 -12 24 -12 38 0 14 5 31 12 38 7 7 9 12 5 12 -3 0 -14 -11 -22 -24z"/>
<path d="M2868 580 c6 -8 12 -26 12 -40 0 -14 -6 -32 -12 -40 -11 -12 -10 -12
5 -1 9 7 17 26 17 41 0 15 -8 34 -17 41 -15 11 -16 11 -5 -1z"/>
<path d="M2930 540 c0 -27 3 -50 8 -50 4 0 7 23 7 50 0 28 -3 50 -7 50 -5 0
-8 -22 -8 -50z"/>
<path d="M2975 551 c-3 -5 -1 -12 5 -16 5 -3 10 1 10 9 0 18 -6 21 -15 7z"/>
<path d="M1265 540 c-3 -5 -1 -10 4 -10 6 0 11 5 11 10 0 6 -2 10 -4 10 -3 0
-8 -4 -11 -10z"/>
<path d="M505 490 c-3 -5 -1 -10 4 -10 6 0 11 5 11 10 0 6 -2 10 -4 10 -3 0
-8 -4 -11 -10z"/>
<path d="M845 490 c-3 -5 -1 -10 4 -10 6 0 11 5 11 10 0 6 -2 10 -4 10 -3 0
-8 -4 -11 -10z"/>
<path d="M523 403 c-22 -8 -14 -43 13 -55 17 -8 24 -18 21 -30 -6 -22 9 -24
17 -2 4 9 -6 26 -25 44 -29 26 -30 29 -13 39 19 10 10 14 -13 4z"/>
<path d="M622 394 c-24 -17 -30 -62 -10 -82 17 -17 33 -15 19 2 -20 24 -9 69
19 83 14 7 18 13 10 13 -9 0 -26 -7 -38 -16z"/>
<path d="M805 355 c0 -47 3 -55 19 -55 15 0 16 3 7 14 -7 8 -11 20 -10 28 3
28 -1 68 -8 68 -5 0 -8 -25 -8 -55z"/>
<path d="M1067 392 c-30 -33 -16 -92 20 -92 8 0 6 7 -7 20 -11 11 -20 26 -20
33 0 20 22 45 45 50 19 4 19 5 -1 6 -11 0 -28 -7 -37 -17z"/>
<path d="M1131 394 c0 -11 3 -14 6 -6 3 7 2 16 -1 19 -3 4 -6 -2 -5 -13z"/>
<path d="M1175 355 c0 -48 2 -55 20 -55 15 0 17 3 7 9 -8 4 -13 17 -12 27 4
36 0 74 -7 74 -5 0 -8 -25 -8 -55z"/>
<path d="M1220 406 c0 -2 7 -7 16 -10 8 -3 12 -2 9 4 -6 10 -25 14 -25 6z"/>
<path d="M1388 392 c-3 -12 -2 -20 2 -17 5 3 14 -13 21 -35 7 -22 16 -40 21
-40 12 0 10 9 -16 65 -19 43 -23 47 -28 27z"/>
<path d="M1838 355 c5 -74 27 -74 27 0 0 42 -3 55 -15 55 -12 0 -14 -11 -12
-55z"/>
<path d="M1935 355 l0 -55 38 0 c20 0 37 4 37 8 0 5 -13 7 -30 4 -30 -4 -30
-4 -30 47 0 28 -3 51 -7 51 -5 0 -8 -25 -8 -55z"/>
<path d="M2057 392 c-20 -22 -22 -63 -5 -80 13 -13 78 -17 78 -4 0 4 -15 7
-32 7 -30 0 -33 3 -36 35 -3 24 2 38 14 47 10 7 13 13 7 13 -5 0 -17 -8 -26
-18z"/>
<path d="M2168 355 c-2 -39 1 -55 10 -55 8 0 12 18 12 55 0 71 -17 71 -22 0z"/>
<path d="M2240 355 c0 -37 4 -55 13 -55 8 0 11 16 9 55 -5 71 -22 71 -22 0z"/>
<path d="M2290 407 c0 -2 20 -25 45 -52 53 -59 60 -51 9 11 -29 36 -54 55 -54
41z"/>
<path d="M2375 400 c3 -5 8 -10 11 -10 2 0 4 5 4 10 0 6 -5 10 -11 10 -5 0 -7
-4 -4 -10z"/>
<path d="M2560 355 l0 -55 40 0 c22 0 40 4 40 8 0 5 -13 7 -30 4 -30 -4 -30
-4 -30 47 0 28 -4 51 -10 51 -5 0 -10 -25 -10 -55z"/>
<path d="M2677 392 c-10 -10 -17 -28 -17 -39 0 -20 29 -53 46 -53 5 0 1 5 -8
11 -21 12 -24 69 -6 87 7 7 10 12 7 12 -3 0 -13 -8 -22 -18z"/>
<path d="M2734 394 c20 -20 20 -43 0 -72 -18 -26 -12 -29 10 -6 28 27 15 94
-17 94 -5 0 -1 -7 7 -16z"/>
<path d="M2810 395 c-31 -37 -3 -96 44 -94 18 1 17 2 -4 8 -57 16 -47 97 12
89 15 -3 28 -1 28 4 0 14 -67 9 -80 -7z"/>
<path d="M2940 375 c12 -20 20 -45 17 -55 -3 -12 0 -20 8 -20 8 0 11 9 7 25
-2 14 2 33 9 43 12 15 12 16 -2 4 -14 -10 -18 -10 -24 5 -5 10 -7 21 -7 26 1
4 -5 7 -14 7 -13 0 -12 -6 6 -35z"/>
<path d="M2990 399 c0 -5 5 -7 10 -4 6 3 10 8 10 11 0 2 -4 4 -10 4 -5 0 -10
-5 -10 -11z"/>
<path d="M738 350 c-2 -29 1 -50 7 -50 6 0 10 23 10 50 0 65 -12 65 -17 0z"/>
<path d="M961 349 c24 -29 45 -47 46 -42 4 11 -68 93 -81 93 -4 0 11 -23 35
-51z"/>
<path d="M1512 349 c23 -28 44 -46 46 -41 3 11 -67 92 -80 92 -5 0 10 -23 34
-51z"/>
<path d="M1610 352 l-5 -52 32 0 c24 0 37 7 49 25 15 23 15 27 0 50 -19 29
-32 35 -15 7 19 -30 3 -72 -26 -72 -21 0 -24 5 -27 48 l-3 47 -5 -53z"/>
<path d="M2430 380 c-13 -25 -6 -53 18 -72 15 -12 16 -11 3 5 -9 11 -12 30 -8
52 7 40 3 44 -13 15z"/>
<path d="M2506 372 c3 -16 0 -40 -7 -53 -11 -22 -11 -23 4 -10 18 15 23 76 7
86 -6 4 -7 -5 -4 -23z"/>
<path d="M1975 360 c-3 -5 -1 -10 4 -10 6 0 11 5 11 10 0 6 -2 10 -4 10 -3 0
-8 -4 -11 -10z"/>
<path d="M2878 335 c2 -14 6 -25 7 -25 1 0 5 11 7 25 3 16 1 25 -7 25 -8 0
-10 -9 -7 -25z"/>
<path d="M109 301 c-52 -53 -33 -138 37 -161 59 -20 118 15 130 76 17 93 -99
153 -167 85z"/>
<path d="M510 310 c0 -5 5 -10 11 -10 5 0 7 5 4 10 -3 6 -8 10 -11 10 -2 0 -4
-4 -4 -10z"/>
<path d="M680 310 c-13 -8 -12 -10 3 -10 9 0 17 5 17 10 0 12 -1 12 -20 0z"/>
<path d="M1120 310 c-13 -8 -12 -10 3 -10 9 0 17 5 17 10 0 12 -1 12 -20 0z"/>
<path d="M1470 310 c0 -5 5 -10 11 -10 5 0 7 5 4 10 -3 6 -8 10 -11 10 -2 0
-4 -4 -4 -10z"/>
<path d="M2295 310 c-3 -5 1 -10 10 -10 9 0 13 5 10 10 -3 6 -8 10 -10 10 -2
0 -7 -4 -10 -10z"/>
<path d="M520 218 c-5 -27 -3 -108 2 -108 5 0 8 25 8 55 0 30 -2 55 -5 55 -3
0 -5 -1 -5 -2z"/>
<path d="M629 204 c-14 -17 -3 -44 22 -53 12 -4 12 -2 0 12 -7 9 -11 26 -8 37
6 24 4 25 -14 4z"/>
<path d="M676 184 c2 -26 -4 -39 -23 -54 -14 -11 -21 -20 -16 -20 21 0 53 42
53 70 0 16 -3 31 -8 34 -4 2 -7 -11 -6 -30z"/>
<path d="M763 204 c-7 -19 7 -46 28 -51 8 -3 6 1 -4 7 -13 9 -17 19 -13 36 7
27 -1 33 -11 8z"/>
<path d="M808 207 c10 -12 7 -49 -7 -72 -3 -6 2 -2 12 8 9 11 17 25 17 32 0
22 -11 45 -22 45 -7 0 -7 -5 0 -13z"/>
<path d="M921 197 c-19 -50 13 -103 45 -76 15 12 20 84 7 92 -5 3 -8 -16 -8
-41 0 -35 -4 -47 -15 -47 -11 0 -15 12 -15 48 0 26 -1 47 -3 47 -1 0 -6 -10
-11 -23z"/>
</g>
</svg>
