<svg version="1.1" id="Layer_1" xmlns="http://www.w3.org/2000/svg" xmlns:xlink="http://www.w3.org/1999/xlink" x="0px" y="0px"
	 width="100%" viewBox="0 0 1280 883" enable-background="new 0 0 1280 883" xml:space="preserve">
<path fill="#FFFFFF" opacity="1.000000" stroke="none" 
	d="
M1.000000,286.000000 
	C1.000000,190.666672 1.000000,95.833336 1.000000,1.000000 
	C427.666656,1.000000 854.333313,1.000000 1281.000000,1.000000 
	C1281.000000,295.333344 1281.000000,589.666687 1281.000000,884.000000 
	C854.333313,884.000000 427.666656,884.000000 1.000000,884.000000 
	C1.000000,684.833313 1.000000,485.666656 1.000000,286.000000 
M240.119080,42.000027 
	C235.434021,43.288399 238.132202,47.058449 238.130737,49.344997 
	C237.963501,312.970062 237.973343,576.595215 237.973587,840.220398 
	C237.973587,842.007507 237.973602,843.794617 237.973602,845.653320 
	C506.898254,845.653320 775.390686,845.653320 1044.025635,845.653320 
	C1044.025635,843.809082 1044.025635,842.317139 1044.025635,840.825195 
	C1044.027710,576.866760 1044.029663,312.908325 1044.031860,48.949875 
	C1044.031860,47.283741 1044.368408,45.513760 1043.898438,43.992985 
	C1043.643188,43.167187 1042.015991,42.765415 1040.079834,42.023628 
	C774.879822,42.019318 509.679810,42.014805 244.479813,42.017086 
	C243.317398,42.017097 242.154968,42.113991 240.119080,42.000027 
z"/>
<path fill="#060606" opacity="1.000000" stroke="none" 
	d="
M1041.007690,42.172382 
	C1042.015991,42.765415 1043.643188,43.167187 1043.898438,43.992985 
	C1044.368408,45.513760 1044.031860,47.283741 1044.031860,48.949875 
	C1044.029663,312.908325 1044.027710,576.866760 1044.025635,840.825195 
	C1044.025635,842.317139 1044.025635,843.809082 1044.025635,845.653320 
	C775.390686,845.653320 506.898254,845.653320 237.973602,845.653320 
	C237.973602,843.794617 237.973587,842.007507 237.973587,840.220398 
	C237.973343,576.595215 237.963501,312.970062 238.130737,49.344997 
	C238.132202,47.058449 235.434021,43.288399 240.558594,42.505035 
	C240.382050,48.194118 244.180527,46.977036 246.928772,46.977291 
	C509.589325,47.001774 772.249878,47.000095 1034.910400,47.000095 
	C1036.705933,47.000095 1038.501465,47.000095 1040.641357,47.000095 
	C1040.788452,45.060837 1040.898071,43.616608 1041.007690,42.172382 
M440.500000,49.000000 
	C376.174438,49.000000 311.848846,48.999523 247.523285,49.000725 
	C241.007935,49.000847 241.002502,49.005535 241.002472,55.441147 
	C241.001556,315.077942 241.001648,574.714722 241.002274,834.351501 
	C241.002304,840.992432 241.006119,840.994751 247.818130,840.994812 
	C509.954651,840.995544 772.091125,840.996033 1034.227661,840.995789 
	C1040.995483,840.995789 1040.999390,840.992249 1040.999390,834.306213 
	C1041.000122,574.836060 1041.000122,315.365936 1040.999634,55.895809 
	C1040.999634,49.002129 1040.996704,49.000278 1033.931763,49.000267 
	C836.454529,48.999931 638.977234,49.000000 440.500000,49.000000 
z"/>
<path fill="#0F0F0F" opacity="1.000000" stroke="none" 
	d="
M1040.543701,42.098003 
	C1040.898071,43.616608 1040.788452,45.060837 1040.641357,47.000095 
	C1038.501465,47.000095 1036.705933,47.000095 1034.910400,47.000095 
	C772.249878,47.000095 509.589325,47.001774 246.928772,46.977291 
	C244.180527,46.977036 240.382050,48.194118 240.995331,42.587841 
	C242.154968,42.113991 243.317398,42.017097 244.479813,42.017086 
	C509.679810,42.014805 774.879822,42.019318 1040.543701,42.098003 
z"/>
<path fill="#0E0E0E" opacity="1.000000" stroke="none" 
	d="
M441.000000,49.000000 
	C638.977234,49.000000 836.454529,48.999931 1033.931763,49.000267 
	C1040.996704,49.000278 1040.999634,49.002129 1040.999634,55.895809 
	C1041.000122,315.365936 1041.000122,574.836060 1040.999390,834.306213 
	C1040.999390,840.992249 1040.995483,840.995789 1034.227661,840.995789 
	C772.091125,840.996033 509.954651,840.995544 247.818130,840.994812 
	C241.006119,840.994751 241.002304,840.992432 241.002274,834.351501 
	C241.001648,574.714722 241.001556,315.077942 241.002472,55.441147 
	C241.002502,49.005535 241.007935,49.000847 247.523285,49.000725 
	C311.848846,48.999523 376.174438,49.000000 441.000000,49.000000 
M945.434631,746.578186 
	C945.289734,742.964294 945.018494,739.350403 945.018127,735.736511 
	C944.997681,540.294861 945.000000,344.853180 945.000000,149.411499 
	C945.000000,147.913376 945.000000,146.415253 945.000000,144.383759 
	C944.017273,145.300644 943.655701,145.637970 943.096741,145.236374 
	C943.996826,143.411606 944.502136,141.199234 945.856140,139.819977 
	C967.323120,117.953568 988.905457,96.200394 1010.442444,74.402641 
	C1013.380981,71.428535 1016.217773,68.353882 1019.241211,65.179276 
	C766.773987,65.179276 514.936768,65.179276 263.099518,65.179276 
	C262.471222,65.975960 261.842926,66.772636 261.214630,67.569321 
	C286.290253,91.713257 311.385681,115.836754 336.382263,140.062256 
	C337.614838,141.256821 337.985107,143.341141 338.006378,145.246246 
	C337.670532,147.285339 337.040985,149.324371 337.040527,151.363541 
	C336.995728,346.717163 336.998688,542.070801 336.999878,737.424438 
	C336.999878,738.923096 336.828003,740.457397 337.102142,741.905884 
	C337.248047,742.677002 338.179443,743.299438 338.919739,744.667603 
	C338.283203,745.602417 337.773315,746.662415 336.991577,747.453735 
	C317.791168,766.890015 298.554382,786.290283 279.342621,805.715271 
	C273.810669,811.308594 268.336182,816.958618 262.488159,822.937683 
	C515.162720,822.937683 766.985291,822.937683 1019.967773,822.937683 
	C1018.620361,821.762817 1017.990112,821.281921 1017.439148,820.722900 
	C993.244629,796.171631 969.057068,771.613464 945.434631,746.578186 
z"/>
<path fill="#FFFFFF" opacity="1.000000" stroke="none" 
	d="
M338.756897,145.011154 
	C337.985107,143.341141 337.614838,141.256821 336.382263,140.062256 
	C311.385681,115.836754 286.290253,91.713257 261.214630,67.569321 
	C261.842926,66.772636 262.471222,65.975960 263.099518,65.179276 
	C514.936768,65.179276 766.773987,65.179276 1019.241211,65.179276 
	C1016.217773,68.353882 1013.380981,71.428535 1010.442444,74.402641 
	C988.905457,96.200394 967.323120,117.953568 945.856140,139.819977 
	C944.502136,141.199234 943.996826,143.411606 943.108398,146.068970 
	C943.114746,345.035004 943.109375,543.168457 943.104431,741.301880 
	C943.104431,742.301697 942.883850,743.373657 943.173523,744.281982 
	C943.493347,745.284912 944.283386,746.137878 944.868652,747.056152 
	C969.057068,771.613464 993.244629,796.171631 1017.439148,820.722900 
	C1017.990112,821.281921 1018.620361,821.762817 1019.967773,822.937683 
	C766.985291,822.937683 515.162720,822.937683 262.488159,822.937683 
	C268.336182,816.958618 273.810669,811.308594 279.342621,805.715271 
	C298.554382,786.290283 317.791168,766.890015 336.991577,747.453735 
	C337.773315,746.662415 338.283203,745.602417 338.920044,743.866699 
	C338.925049,544.875305 338.930023,346.684784 338.927063,148.494293 
	C338.927032,147.333252 338.816040,146.172195 338.756897,145.011154 
M829.831482,583.081238 
	C830.983765,583.373474 832.136047,583.665771 833.288391,583.958008 
	C833.355957,582.873169 833.665344,581.734619 833.439209,580.714966 
	C833.010376,578.781677 832.286743,576.912476 831.664246,575.023682 
	C824.144958,552.210266 818.760132,528.930969 818.002441,504.855621 
	C817.499573,488.879822 818.000061,472.873444 817.995850,456.880737 
	C817.987183,423.762878 820.513000,390.606018 816.039429,357.557526 
	C814.600037,346.923828 812.428040,336.541046 803.857483,329.449280 
	C797.928528,324.543365 791.239319,319.885406 784.101562,317.259064 
	C771.540771,312.637329 758.484924,309.199005 745.437744,306.102234 
	C729.457153,302.309235 713.263733,299.417694 697.178711,296.057800 
	C686.558838,293.839478 679.146729,287.983978 676.124329,277.189545 
	C674.872620,272.718903 673.062256,268.389496 672.025330,263.876526 
	C667.067932,242.300766 659.224792,222.075806 645.513123,204.385300 
	C642.050354,199.917709 639.563477,199.696121 636.485840,204.529251 
	C634.883850,207.044937 633.679688,209.879974 631.767883,212.120163 
	C625.397339,219.584915 620.909546,228.053833 617.981506,237.328125 
	C613.789124,250.607391 609.741760,263.935181 605.844116,277.303925 
	C602.702209,288.080383 595.334961,293.904236 584.709717,296.077393 
	C573.001160,298.472107 561.158142,300.298981 549.567017,303.157440 
	C532.027466,307.482880 514.382019,311.677338 497.293518,317.444427 
	C482.159973,322.551758 470.467285,332.479889 467.344421,349.324188 
	C465.680695,358.298340 464.198547,367.463989 464.146667,376.551819 
	C463.926056,415.200806 464.515259,453.854645 464.268127,492.503235 
	C464.188599,504.940796 463.506836,517.566895 461.212311,529.751160 
	C458.060730,546.486572 453.074493,562.874390 448.997711,579.441467 
	C448.626221,580.951233 449.149994,582.681335 449.258026,584.309082 
	C450.666382,583.343689 452.577545,582.687439 453.394440,581.358459 
	C456.610382,576.126526 459.635345,570.762207 462.456818,565.305237 
	C480.041016,531.295227 490.190399,495.345825 491.203735,456.884216 
	C491.645935,440.099121 492.273499,423.256866 494.140869,406.588898 
	C495.983490,390.141815 505.066864,378.416046 521.769165,374.434204 
	C539.497498,370.207794 557.510681,368.191132 575.725159,371.035980 
	C594.556580,373.977203 607.486572,385.984711 611.736267,404.361816 
	C612.857178,409.209167 613.685669,414.127167 614.552551,419.029694 
	C617.447266,435.399902 621.041138,451.711395 620.025391,468.489716 
	C619.840942,471.536285 619.195068,474.986603 617.555115,477.445465 
	C603.704895,498.211700 593.224060,520.624451 586.104736,544.417175 
	C574.603210,582.855103 563.937683,621.543640 552.996521,660.148315 
	C551.253845,666.297058 549.915833,672.560486 548.300110,679.140076 
	C553.345032,679.205139 553.829651,675.775391 554.915955,673.260132 
	C571.966248,633.782227 588.891479,594.250305 605.968140,554.783813 
	C611.016602,543.116089 617.177612,532.090942 626.931519,523.554932 
	C637.626709,514.195129 644.564270,514.284302 655.321045,523.780640 
	C664.781067,532.132141 670.767090,542.873352 675.807800,554.161987 
	C683.391357,571.145081 690.763489,588.223694 698.100281,605.315369 
	C707.794128,627.898071 717.327393,650.549744 727.048950,673.120422 
	C728.090515,675.538757 729.925354,677.615417 731.392212,679.850586 
	C731.979492,679.558594 732.566711,679.266602 733.153992,678.974609 
	C732.967407,677.236450 733.018066,675.432861 732.559509,673.769714 
	C721.715698,634.439331 711.113098,595.038696 699.821899,555.836609 
	C692.539307,530.551941 682.681213,506.136810 668.455933,483.928558 
	C663.337952,475.938385 660.748474,468.151428 661.945007,459.144897 
	C664.174255,442.364166 666.252075,425.527802 669.462341,408.921326 
	C674.101440,384.923828 684.874023,374.634735 709.129517,370.788544 
	C726.444092,368.042969 743.681335,370.397888 760.575745,374.548431 
	C775.009705,378.094482 783.867065,387.638794 786.966248,402.089691 
	C788.492798,409.207520 789.483704,416.513000 789.903259,423.780548 
	C790.834290,439.905579 790.831604,456.089722 791.961548,472.196991 
	C794.766846,512.185242 808.866150,548.460327 829.831482,583.081238 
z"/>
<path fill="#030303" opacity="1.000000" stroke="none" 
	d="
M945.151611,746.817139 
	C944.283386,746.137878 943.493347,745.284912 943.173523,744.281982 
	C942.883850,743.373657 943.104431,742.301697 943.104431,741.301880 
	C943.109375,543.168457 943.114746,345.035004 943.207092,146.438446 
	C943.655701,145.637970 944.017273,145.300644 945.000000,144.383759 
	C945.000000,146.415253 945.000000,147.913376 945.000000,149.411499 
	C945.000000,344.853180 944.997681,540.294861 945.018127,735.736511 
	C945.018494,739.350403 945.289734,742.964294 945.151611,746.817139 
z"/>
<path fill="#030303" opacity="1.000000" stroke="none" 
	d="
M338.381653,145.128693 
	C338.816040,146.172195 338.927032,147.333252 338.927063,148.494293 
	C338.930023,346.684784 338.925049,544.875305 338.838318,743.527344 
	C338.179443,743.299438 337.248047,742.677002 337.102142,741.905884 
	C336.828003,740.457397 336.999878,738.923096 336.999878,737.424438 
	C336.998688,542.070801 336.995728,346.717163 337.040527,151.363541 
	C337.040985,149.324371 337.670532,147.285339 338.381653,145.128693 
z"/>
<path fill="#0E0E0E" opacity="1.000000" stroke="none" 
	d="
M829.548462,582.818420 
	C808.866150,548.460327 794.766846,512.185242 791.961548,472.196991 
	C790.831604,456.089722 790.834290,439.905579 789.903259,423.780548 
	C789.483704,416.513000 788.492798,409.207520 786.966248,402.089691 
	C783.867065,387.638794 775.009705,378.094482 760.575745,374.548431 
	C743.681335,370.397888 726.444092,368.042969 709.129517,370.788544 
	C684.874023,374.634735 674.101440,384.923828 669.462341,408.921326 
	C666.252075,425.527802 664.174255,442.364166 661.945007,459.144897 
	C660.748474,468.151428 663.337952,475.938385 668.455933,483.928558 
	C682.681213,506.136810 692.539307,530.551941 699.821899,555.836609 
	C711.113098,595.038696 721.715698,634.439331 732.559509,673.769714 
	C733.018066,675.432861 732.967407,677.236450 733.153992,678.974609 
	C732.566711,679.266602 731.979492,679.558594 731.392212,679.850586 
	C729.925354,677.615417 728.090515,675.538757 727.048950,673.120422 
	C717.327393,650.549744 707.794128,627.898071 698.100281,605.315369 
	C690.763489,588.223694 683.391357,571.145081 675.807800,554.161987 
	C670.767090,542.873352 664.781067,532.132141 655.321045,523.780640 
	C644.564270,514.284302 637.626709,514.195129 626.931519,523.554932 
	C617.177612,532.090942 611.016602,543.116089 605.968140,554.783813 
	C588.891479,594.250305 571.966248,633.782227 554.915955,673.260132 
	C553.829651,675.775391 553.345032,679.205139 548.300110,679.140076 
	C549.915833,672.560486 551.253845,666.297058 552.996521,660.148315 
	C563.937683,621.543640 574.603210,582.855103 586.104736,544.417175 
	C593.224060,520.624451 603.704895,498.211700 617.555115,477.445465 
	C619.195068,474.986603 619.840942,471.536285 620.025391,468.489716 
	C621.041138,451.711395 617.447266,435.399902 614.552551,419.029694 
	C613.685669,414.127167 612.857178,409.209167 611.736267,404.361816 
	C607.486572,385.984711 594.556580,373.977203 575.725159,371.035980 
	C557.510681,368.191132 539.497498,370.207794 521.769165,374.434204 
	C505.066864,378.416046 495.983490,390.141815 494.140869,406.588898 
	C492.273499,423.256866 491.645935,440.099121 491.203735,456.884216 
	C490.190399,495.345825 480.041016,531.295227 462.456818,565.305237 
	C459.635345,570.762207 456.610382,576.126526 453.394440,581.358459 
	C452.577545,582.687439 450.666382,583.343689 449.258057,584.309082 
	C449.149994,582.681335 448.626221,580.951233 448.997711,579.441467 
	C453.074493,562.874390 458.060730,546.486572 461.212311,529.751160 
	C463.506836,517.566895 464.188599,504.940796 464.268127,492.503235 
	C464.515259,453.854645 463.926056,415.200806 464.146667,376.551819 
	C464.198547,367.463989 465.680695,358.298340 467.344421,349.324188 
	C470.467285,332.479889 482.159973,322.551758 497.293518,317.444427 
	C514.382019,311.677338 532.027466,307.482880 549.567017,303.157440 
	C561.158142,300.298981 573.001160,298.472107 584.709717,296.077393 
	C595.334961,293.904236 602.702209,288.080383 605.844116,277.303925 
	C609.741760,263.935181 613.789124,250.607391 617.981506,237.328125 
	C620.909546,228.053833 625.397339,219.584915 631.767883,212.120163 
	C633.679688,209.879974 634.883850,207.044937 636.485840,204.529251 
	C639.563477,199.696121 642.050354,199.917709 645.513123,204.385300 
	C659.224792,222.075806 667.067932,242.300766 672.025330,263.876526 
	C673.062256,268.389496 674.872620,272.718903 676.124329,277.189545 
	C679.146729,287.983978 686.558838,293.839478 697.178711,296.057800 
	C713.263733,299.417694 729.457153,302.309235 745.437744,306.102234 
	C758.484924,309.199005 771.540771,312.637329 784.101562,317.259064 
	C791.239319,319.885406 797.928528,324.543365 803.857483,329.449280 
	C812.428040,336.541046 814.600037,346.923828 816.039429,357.557526 
	C820.513000,390.606018 817.987183,423.762878 817.995850,456.880737 
	C818.000061,472.873444 817.499573,488.879822 818.002441,504.855621 
	C818.760132,528.930969 824.144958,552.210266 831.664246,575.023682 
	C832.286743,576.912476 833.010376,578.781677 833.439209,580.714966 
	C833.665344,581.734619 833.355957,582.873169 833.288391,583.958008 
	C832.136047,583.665771 830.983765,583.373474 829.548462,582.818420 
z"/>
</svg>