<?xml version="1.0" standalone="no"?>
<!DOCTYPE svg PUBLIC "-//W3C//DTD SVG 20010904//EN"
 "http://www.w3.org/TR/2001/REC-SVG-20010904/DTD/svg10.dtd">
<svg version="1.0" xmlns="http://www.w3.org/2000/svg"
 width="270.000000pt" height="186.000000pt" viewBox="0 0 270.000000 186.000000"
 preserveAspectRatio="xMidYMid meet">

<g transform="translate(0.000000,186.000000) scale(0.100000,-0.100000)"
fill="#000000" stroke="none">
<path d="M500 925 l0 -845 850 0 850 0 0 845 0 845 -850 0 -850 0 0 -845z
m1572 722 l-82 -82 0 -635 0 -635 82 -82 83 -83 -805 0 -805 0 83 83 82 82 0
635 0 635 -82 82 -83 83 805 0 805 0 -83 -83z"/>
<path d="M1323 1403 c-12 -21 -27 -59 -33 -85 -7 -26 -20 -54 -29 -62 -9 -8
-52 -22 -95 -31 -44 -9 -97 -23 -118 -32 -62 -25 -68 -47 -68 -245 0 -116 -5
-193 -15 -233 -18 -75 -18 -86 0 -55 38 67 58 139 65 246 5 62 13 122 20 133
15 29 52 42 121 42 90 1 109 -19 130 -136 11 -65 11 -66 -24 -133 -33 -61
-121 -344 -115 -364 2 -5 30 55 63 133 57 133 98 199 125 199 27 0 68 -66 125
-199 33 -78 61 -138 63 -133 6 20 -82 303 -115 364 -35 67 -35 68 -24 133 21
117 40 137 130 136 69 0 106 -13 121 -42 7 -11 15 -71 20 -133 7 -107 27 -179
65 -246 18 -31 18 -20 0 55 -10 40 -15 117 -15 233 0 198 -6 220 -68 245 -21
9 -74 23 -118 32 -43 9 -86 23 -95 31 -9 8 -22 36 -29 62 -12 48 -48 122 -60
122 -3 0 -16 -17 -27 -37z"/>
</g>
</svg>
